<?xml version="1.0" encoding="UTF-8"?>
<svg id="Ebene_2" data-name="Ebene 2" xmlns="http://www.w3.org/2000/svg" viewBox="0 0 107.71 115">
  <defs>
    <style>
      .cls-1 {
        fill: #ffefc9;
      }

      .cls-1, .cls-2, .cls-3, .cls-4, .cls-5, .cls-6, .cls-7 {
        stroke-width: 0px;
      }

      .cls-2 {
        fill: #004539;
      }

      .cls-3 {
        fill: #721950;
      }

      .cls-4 {
        fill: #012430;
      }

      .cls-5 {
        fill: #000;
      }

      .cls-6 {
        fill: #a51e64;
      }

      .cls-7 {
        fill: #891f5b;
      }
    </style>
  </defs>
  <g id="Layer_1" data-name="Layer 1">
    <g>
      <g>
        <path class="cls-3" d="M104.48,49.98c.79-.75,1.31-.71,2.33-2.21,1.1-1.63-.72-2.14-2-1.47-3.2,1.69-2.77,2.08-2.23-.62.32-1.61-.09-2.2-.45-2.36-1.17-.5-1.61.43-2.27,2.44-.83,2.54-1.41,3.43-1.41,3.43,0,0-5.82,3.86-10.31,7.45.16,1.67.31,3.36.46,5.07.06.68.11,1.34.16,2,3.79-3.83,8.78-9.36,12.04-10.65,0,0,1.83.03,3.43.03.93,0,3.52,0,3.47-1.54-.06-1.68-3.62-1.21-3.22-1.58Z"/>
        <path class="cls-3" d="M9.26,40.27s-.57-.89-1.41-3.43c-.66-2.01-1.1-2.95-2.27-2.44-.37.16-.78.75-.45,2.36.54,2.7.97,2.32-2.23.62-1.27-.67-3.1-.16-2,1.47,1.02,1.5,1.54,1.46,2.33,2.21.39.37-3.16-.1-3.22,1.58-.05,1.54,2.54,1.54,3.47,1.54,1.6,0,3.43-.03,3.43-.03,3.22,2.09,8.62,8.11,12.51,11.7.22-2.72.52-5.4.92-8.01-4.57-3.18-11.07-7.56-11.07-7.56Z"/>
        <path class="cls-2" d="M18.68,6.22c0,8.83,5.5,15.23,9.48,15.9,2.08-4,4.49-7.52,7.25-10.43-13.32-3.25-16.73-19.06-16.73-5.47Z"/>
        <path class="cls-2" d="M90.55,6.35c0-14.31-.63-.75-15.13,4.95,2.29,2.8,4.19,6.21,5.76,10.15,5.94-1.39,9.37-8.42,9.37-15.09Z"/>
        <path class="cls-3" d="M39.1,107.12c0,10.18-3.64,7.58,7.12,7.58,1.3,0,2.59.02,3.89.05.01,0,.03,0,.04,0,1.64,0,3.48-1.16,1.95-2.98-.99-1.17-3.99-1.62-4.96-1.62-6.48,0-6.49,4.07-6.49-.92,0-2.79.59-6.19.59-8.6,0-1.17-.17-2.11-.42-2.9-1.29.15-2.52.29-3.67.4,1.48,2.82,1.95,5.88,1.95,8.98Z"/>
        <path class="cls-3" d="M66.56,107.12c0,10.18-3.64,7.58,7.12,7.58,1.3,0,2.59.02,3.89.05.01,0,.03,0,.04,0,1.64,0,3.48-1.16,1.95-2.98-.99-1.17-3.99-1.62-4.96-1.62-6.48,0-6.49,4.07-6.49-.92,0-2.79.59-6.19.59-8.6,0-.71-.07-1.31-.18-1.88-1.22-.2-2.52-.43-3.94-.67,1.5,2.83,1.97,5.91,1.97,9.03Z"/>
        <path class="cls-6" d="M88.77,63.71c-.05-.66-.11-1.32-.16-2-.14-1.72-.3-3.4-.46-5.07-1.34-13.89-3.29-25.98-6.97-35.2-1.57-3.94-3.47-7.35-5.76-10.15-4.62-5.65-10.87-8.84-19.47-8.84-8.15,0-15.01,3.4-20.53,9.24-2.75,2.91-5.17,6.42-7.25,10.43-3.74,7.22-6.38,16.01-7.84,25.71-.39,2.61-.69,5.29-.92,8.01-.29,3.54-.45,7.15-.45,10.83,0,24.66,2.57,30.8,13.84,31.59,1.33.09,2.78.02,4.34-.12,1.15-.1,2.37-.24,3.67-.4,3.5-.41,7.55-.89,12.32-.78,4.68.1,8.35.62,11.45,1.13,1.42.24,2.72.47,3.94.67,2.61.43,4.86.68,7.1.36,13.17-1.87,15.02-11.46,13.14-35.41Z"/>
      </g>
      <g>
        <path class="cls-4" d="M78.24,41.5c-1.41,3.27-5.07,9-6.75,8.8-.03,0-3.86-7.06-4.98-6.1-1.45,1.25-2.44,3.26-5.79,6.65-3.06-7.96-5.35-6.29-7.57-3.62-1.66,2.01-3.71,4.48-3.71,4.48-1.99,0-3.58-9.04-5.23-7.11-2.13,2.49-7.06,6.75-7.06,6.75-3.21-1.1-5.98-6.54-6.4-8.81-4.8,1.66-5.69,5.86-5.69,8.3,0,5.52-.12,12.89,4.07,14.74,2,.88,4.12,1.33,6.29,1.47-.06-.31-.09-.64-.09-.97,0-1.81,2.51-8.12,5.44-9.32,0,0,3.46,4.69,5.25,7.18,1.39,1.93,3.42-7.54,5.09-7.54,0,0,1.72,2.47,3.12,4.48,1.87,2.68,1.53,3.17,6.37-3.62,2.82,3.39,3.65,5.4,4.87,6.65.94.97,4.17-6.09,4.19-6.1,1.34-.19,4.18,4.94,5.48,8.26,3.37-.32,6.55-2.78,6.55-8.29,0-6.7,2.51-13.39-3.44-16.31Z"/>
        <path class="cls-1" d="M37.15,51.37s4.93-4.26,7.06-6.75c1.65-1.93,3.24,7.11,5.23,7.11,0,0,2.05-2.47,3.71-4.48,2.22-2.68,4.51-4.34,7.57,3.62,3.35-3.39,4.34-5.4,5.79-6.65,1.12-.97,4.95,6.09,4.98,6.1,1.68.2,5.34-5.53,6.75-8.8-.58-.29-1.24-.54-2-.75-5.96-.56-4.04,2-22.07,2-3.91,0-10.15.01-15.58-.68-3.38-.43-5.92-.18-7.85.48.42,2.26,3.19,7.71,6.4,8.81Z"/>
        <path class="cls-1" d="M69.66,57.85s-3.25,7.06-4.19,6.1c-1.22-1.25-2.06-3.26-4.87-6.65-4.84,6.79-4.5,6.29-6.37,3.62-1.4-2.01-3.12-4.48-3.12-4.48-1.68,0-3.7,9.47-5.09,7.54-1.8-2.49-5.25-7.18-5.25-7.18-2.93,1.2-5.44,7.51-5.44,9.32,0,.33.03.66.09.97.55.04,1.1.06,1.66.06,8.12,0,13.05-3.2,18.68-3.06,8.84.23,15.01,2.07,18.62,2.07.25,0,.5-.01.75-.04-1.3-3.32-4.14-8.45-5.48-8.26Z"/>
      </g>
      <path class="cls-1" d="M61.66,30.33c0,3.32-2.55,6.01-5.7,6.01s-5.7-2.69-5.7-6.01,2.55-6.01,5.7-6.01,5.7,2.69,5.7,6.01Z"/>
      <path class="cls-5" d="M58.67,30.16c0,1.58-1.21,2.86-2.71,2.86s-2.71-1.28-2.71-2.86,1.21-2.86,2.71-2.86,2.71,1.28,2.71,2.86Z"/>
      <path class="cls-7" d="M61.41,28.57c-.71-2.46-2.89-4.25-5.46-4.25s-4.81,1.84-5.49,4.36l10.94-.11Z"/>
      <path class="cls-1" d="M77.97,24.38c1.65,2.88.78,6.48-1.95,8.05-2.73,1.57-6.29.51-7.94-2.37-1.65-2.88-.78-6.48,1.95-8.05,2.73-1.57,6.29-.51,7.94,2.37Z"/>
      <ellipse class="cls-5" cx="72.82" cy="26.51" rx="2.71" ry="2.86"/>
      <path class="cls-7" d="M76.88,22.98c-1.84-1.78-4.62-2.25-6.85-.96-2.26,1.3-3.25,4-2.58,6.52l9.43-5.55Z"/>
      <path class="cls-1" d="M43.09,29.89c-1.55,2.93-5.06,4.12-7.85,2.65-2.79-1.47-3.79-5.04-2.24-7.98s5.06-4.12,7.85-2.65c2.79,1.47,3.79,5.04,2.24,7.98Z"/>
      <path class="cls-5" d="M41.14,26.51c0,1.58-1.21,2.86-2.71,2.86s-2.71-1.28-2.71-2.86,1.21-2.86,2.71-2.86,2.71,1.28,2.71,2.86Z"/>
      <path class="cls-7" d="M43.7,28.22c.52-2.51-.57-5.11-2.84-6.3-2.31-1.22-5.11-.61-6.89,1.3l9.73,5.01Z"/>
    </g>
  </g>
</svg>