<?xml version="1.0" encoding="UTF-8"?>
<svg id="Ebene_2" data-name="Ebene 2" xmlns="http://www.w3.org/2000/svg" viewBox="0 0 101.25 96.73">
  <defs>
    <style>
      .cls-1 {
        fill: #ffefc9;
      }

      .cls-1, .cls-2, .cls-3, .cls-4, .cls-5, .cls-6 {
        stroke-width: 0px;
      }

      .cls-7 {
        fill: none;
        stroke: #17022b;
        stroke-miterlimit: 10;
        stroke-width: .7px;
      }

      .cls-2 {
        fill: #520087;
      }

      .cls-3 {
        fill: #ffe0a8;
      }

      .cls-4 {
        fill: #000;
      }

      .cls-5 {
        fill: #320159;
      }

      .cls-6 {
        fill: #440377;
      }
    </style>
  </defs>
  <g id="Layer_1" data-name="Layer 1">
    <g>
      <g>
        <path class="cls-5" d="M89.26,49.82c-.86.34-2.09,1.36-1.82,2.95.13.77,1.03,1.35,1.89,1.95.05-1.68.08-3.42-.07-4.9Z"/>
        <path class="cls-5" d="M78.46,79.75c.09-.05.17-.1.25-.15-1.61-1.59-2.5-4.74-4.99-4.74-1.73,0-2.96,3.68-4.68,5.29,3.86.9,7.25.88,9.42-.39Z"/>
        <path class="cls-5" d="M60.34,32.84c-2.29,0-5.32-.95-7.93-2.11-1.65,4.52-4.2,9.02-6.37,13.39,12.06-4.97,16.97-11.28,14.3-11.28Z"/>
        <path class="cls-5" d="M62.03,69.61c-2.04,0-3.79,2.57-5.2,5.47,2.93,1.72,6.01,3.14,8.95,4.13-1.08-3.15-.66-9.6-3.74-9.6Z"/>
        <path class="cls-5" d="M86.08,68.7c-1.35,0-2.56.43-2.56,1.69,0,1.35.73,2.78,1.28,4.15,1.33-1.66,2.37-3.59,3.11-5.95-.61.05-1.17.11-1.83.11Z"/>
        <path class="cls-5" d="M53.26,72.79c.32-2.08.65-4.09.82-5.17,1.02-6.7-.92-8.36-5.08-5.07-1.52,1.21-2.74,2.15-3.7,2.86,2.03,2.64,4.82,5.17,7.97,7.38Z"/>
        <path class="cls-5" d="M86.42,62c0,1.84,1.2,3.1,2.05,4.43.47-2.21.74-4.75.78-7.71-1.31.66-2.83,1.4-2.83,3.28Z"/>
        <path class="cls-5" d="M44.33,64.05c3.15-4.12,8.99-11.36,9.92-16-3.24,1.8-6.64.68-9.8-.57-1.47,3.33-2.51,6.55-2.51,9.62,0,2.29.89,4.65,2.39,6.94Z"/>
        <path class="cls-5" d="M53.18,28.38c3.42-1.14,5.29-3.79,7.16-8.4-3.48-.14-4.51-.28-6.52-1.29.21,1.19.31,2.37.31,3.53,0,2.05-.36,4.11-.95,6.17Z"/>
        <path class="cls-2" d="M67.43,80.9c.59,0,1.12-.29,1.61-.75-1.06-.25-2.15-.56-3.26-.94.34,1,.84,1.67,1.65,1.68Z"/>
        <path class="cls-2" d="M95.4,35.92c-1.88-2.07-4.2-5.68-6.84-5.68-3.87,0-8.69,14.47-6.28,18.73.74,1.3,4.74-2.94,5.33-2.72,1.02.38,1.47,1.78,1.65,3.58.15,1.48.12,3.22.07,4.9-.03,1.11-.07,2.19-.07,3.13,0,.29,0,.58,0,.87-.04,2.96-.3,5.5-.78,7.71-.16.76-.35,1.48-.56,2.16-.74,2.36-1.78,4.29-3.11,5.95-1.61,2-3.64,3.6-6.09,5.06-.08.05-.17.1-.25.15-2.18,1.27-5.57,1.29-9.42.39-.49.46-1.02.76-1.61.75-.81-.01-1.31-.68-1.65-1.68-2.94-.99-6.02-2.41-8.95-4.13-1.22-.72-2.42-1.48-3.57-2.29-3.14-2.21-5.94-4.74-7.97-7.38-.34-.45-.67-.9-.96-1.36-1.5-2.29-2.39-4.65-2.39-6.94,0-3.07,1.04-6.3,2.51-9.62.49-1.11,1.03-2.24,1.59-3.37,2.18-4.36,4.72-8.86,6.37-13.39.29-.78.54-1.57.77-2.35.59-2.06.95-4.12.95-6.17,0-1.16-.11-2.34-.31-3.53C52.32,10.01,45.35,1.16,33.18.13,15.04-1.41,3.59,10.75,3.41,30.85l-2.88-.53c-.03.24-1.39,6.88.39,11.39,2.46,6.26,5.33,8.78,11.72,11.89,0,0,.28,38.66,43.4,42.76,22.04,2.1,40.87-4.33,40.87-28.2,0-3.59-.86-8.52-2.91-16.62-2.82-11.12,2.42-5.3,6.64-6.46,2.44-.67-2.93-6.63-5.24-9.17Z"/>
      </g>
      <path class="cls-7" d="M.52,30.32l2.88.53s14.84,2.71,20.94,1.62c8.13-1.45,11.77-3.62,12.96-7.25"/>
      <g>
        <path class="cls-1" d="M18.37,30.06c0,.82-.17,1.56-.48,2.22.64.04,1.26.06,1.87.07-.63-1.52-1.39-2.51-1.39-2.3Z"/>
        <path class="cls-1" d="M6.37,30.98c-1.09-2.32-1.95-4.7-2.32-7.2-1.53,1.96-2.05,4.1-2.2,6.42l1.61.3s1.17.21,2.91.48Z"/>
        <path class="cls-1" d="M28.44,25.65c.07.52-.03,3.83-.16,5.61,1.44-.38,2.68-.8,3.74-1.27-1.17-1.71-2.52-3.11-3.58-4.33Z"/>
      </g>
      <path class="cls-6" d="M16.81,15.61c0,3.83-3.56,6.93-7.96,6.93S.89,19.44.89,15.61s3.56-6.93,7.96-6.93,7.96,3.1,7.96,6.93Z"/>
      <path class="cls-3" d="M16.39,15.48c0,3.58-3.22,6.48-7.2,6.48s-7.2-2.9-7.2-6.48,3.22-6.48,7.2-6.48,7.2,2.9,7.2,6.48Z"/>
      <path class="cls-6" d="M35.7,17.05c0,4.2-3.73,7.61-8.34,7.61s-8.34-3.41-8.34-7.61,3.73-7.61,8.34-7.61,8.34,3.41,8.34,7.61Z"/>
      <path class="cls-3" d="M35.27,16.87c0,3.85-3.47,6.97-7.75,6.97s-7.75-3.12-7.75-6.97,3.47-6.97,7.75-6.97,7.75,3.12,7.75,6.97Z"/>
      <path class="cls-4" d="M10.86,15.57c0,1.89-1.4,3.42-3.13,3.42s-3.13-1.53-3.13-3.42,1.4-3.42,3.13-3.42,3.13,1.53,3.13,3.42Z"/>
      <path class="cls-4" d="M27.57,16.05c0,1.89-1.4,3.42-3.13,3.42s-3.13-1.53-3.13-3.42,1.4-3.42,3.13-3.42,3.13,1.53,3.13,3.42Z"/>
    </g>
  </g>
</svg>